{
  "source": "C:\\Users\\Peter\\Desktop\\stuff\\MIUN\\quantitative_research\\video_compression\\videos\\BVI-HD\\BVI-HD_CDVL_videos\\ORIG\\SmokeGuns_1920x1080_60fps.mp4",
  "output": "C:\\Users\\Peter\\Desktop\\stuff\\MIUN\\quantitative_research\\video_compression\\compressed_videos\\BVI-HD\\vp9\\1.5\\SmokeGuns_1920x1080_60fps_vp9.webm",
  "codec": "vp9",
  "ok": "Input #0, mov,mp4,m4a,3gp,3g2,mj2, from 'C:\\Users\\Peter\\Desktop\\stuff\\MIUN\\quantitative_research\\video_compression\\videos\\BVI-HD\\BVI-HD_CDVL_videos\\ORIG\\SmokeGuns_1920x1080_60fps.mp4':\n  Metadata:\n    major_brand     : isom\n    minor_version   : 512\n    compatible_brands: isomiso2avc1mp41\n    encoder         : Lavf54.28.101\n  Duration: 00:00:05.00, start: 0.000000, bitrate: 384353 kb/s\n  Stream #0:0[0x1](und): Video: h264 (High 4:4:4 Predictive) (avc1 / 0x31637661), yuv420p(progressive), 1920x1080, 384348 kb/s, 60 fps, 60 tbr, 60 tbn (default)\n    Metadata:\n      handler_name    : VideoHandler\n      vendor_id       : [0][0][0][0]\n[out#0/webm @ 000001eab3ff9180] Codec AVOption b:a (set bitrate (in bits/s)) has not been used for any stream. The most likely reason is either wrong type (e.g. a video option with no video streams) or that it is a private option of some decoder which was not actually used for any stream.\nStream mapping:\n  Stream #0:0 -> #0:0 (h264 (native) -> vp9 (libvpx-vp9))\nPress [q] to stop, [?] for help\n[libvpx-vp9 @ 000001eab4632a80] v1.15.2-100-g40561f514\nOutput #0, webm, to 'C:\\Users\\Peter\\Desktop\\stuff\\MIUN\\quantitative_research\\video_compression\\compressed_videos\\BVI-HD\\vp9\\1.5\\SmokeGuns_1920x1080_60fps_vp9.webm':\n  Metadata:\n    major_brand     : isom\n    minor_version   : 512\n    compatible_brands: isomiso2avc1mp41\n    encoder         : Lavf62.3.100\n  Stream #0:0(und): Video: vp9, yuv420p(tv, progressive), 1920x1080, q=2-31, 1500 kb/s, 60 fps, 1k tbn (default)\n    Metadata:\n      encoder         : Lavc62.11.100 libvpx-vp9\n      handler_name    : VideoHandler\n      vendor_id       : [0][0][0][0]\n    Side data:\n      cpb: bitrate max/min/avg: 0/0/0 buffer size: 1500000 vbv_delay: N/A\nframe=    0 fps=0.0 q=0.0 size=       0KiB time=N/A bitrate=N/A speed=N/A elapsed=0:00:00.51    \nframe=    9 fps=8.7 q=55.0 size=       1KiB time=00:00:00.15 bitrate=  33.8kbits/s speed=0.145x elapsed=0:00:01.03    \nframe=   15 fps=9.7 q=53.0 size=       1KiB time=00:00:00.25 bitrate=  20.3kbits/s speed=0.162x elapsed=0:00:01.54    \nframe=   22 fps= 11 q=53.0 size=       1KiB time=00:00:00.36 bitrate=  13.8kbits/s speed=0.178x elapsed=0:00:02.05    \nframe=   28 fps= 11 q=50.0 size=       1KiB time=00:00:00.46 bitrate=  10.9kbits/s speed=0.179x elapsed=0:00:02.60    \nframe=   34 fps= 11 q=49.0 size=       1KiB time=00:00:00.56 bitrate=   8.9kbits/s speed=0.182x elapsed=0:00:03.12    \nframe=   40 fps= 11 q=47.0 size=       1KiB time=00:00:00.66 bitrate=   7.6kbits/s speed=0.183x elapsed=0:00:03.65    \nframe=   47 fps= 11 q=50.0 size=       1KiB time=00:00:00.78 bitrate=   6.5kbits/s speed=0.188x elapsed=0:00:04.17    \nframe=   52 fps= 11 q=48.0 size=       1KiB time=00:00:00.86 bitrate=   5.8kbits/s speed=0.185x elapsed=0:00:04.68    \nframe=   59 fps= 11 q=51.0 size=       1KiB time=00:00:00.98 bitrate=   5.1kbits/s speed=0.189x elapsed=0:00:05.20    \nframe=   65 fps= 11 q=50.0 size=       1KiB time=00:00:01.08 bitrate=   4.7kbits/s speed=0.189x elapsed=0:00:05.72    \nframe=   72 fps= 11 q=52.0 size=       1KiB time=00:00:01.20 bitrate=   4.2kbits/s speed=0.191x elapsed=0:00:06.26    \nframe=   79 fps= 12 q=52.0 size=       1KiB time=00:00:01.31 bitrate=   3.8kbits/s speed=0.193x elapsed=0:00:06.81    \nframe=   84 fps= 11 q=53.0 size=       1KiB time=00:00:01.40 bitrate=   3.6kbits/s speed=0.191x elapsed=0:00:07.33    \nframe=   91 fps= 12 q=53.0 size=       1KiB time=00:00:01.51 bitrate=   3.3kbits/s speed=0.193x elapsed=0:00:07.85    \nframe=   97 fps= 12 q=34.0 size=       1KiB time=00:00:01.61 bitrate=   3.1kbits/s speed=0.193x elapsed=0:00:08.38    \nframe=  104 fps= 12 q=54.0 size=       1KiB time=00:00:01.73 bitrate=   2.9kbits/s speed=0.194x elapsed=0:00:08.91    \nframe=  111 fps= 12 q=53.0 size=       1KiB time=00:00:01.85 bitrate=   2.7kbits/s speed=0.196x elapsed=0:00:09.43    \nframe=  118 fps= 12 q=56.0 size=       1KiB time=00:00:01.96 bitrate=   2.6kbits/s speed=0.197x elapsed=0:00:09.96    \nframe=  125 fps= 12 q=54.0 size=       1KiB time=00:00:02.08 bitrate=   2.4kbits/s speed=0.199x elapsed=0:00:10.47    \nframe=  131 fps= 12 q=51.0 size=     256KiB time=00:00:02.18 bitrate= 960.5kbits/s speed=0.199x elapsed=0:00:10.99    \nframe=  139 fps= 12 q=54.0 size=     256KiB time=00:00:02.31 bitrate= 905.2kbits/s speed=0.201x elapsed=0:00:11.51    \nframe=  146 fps= 12 q=52.0 size=     256KiB time=00:00:02.43 bitrate= 861.8kbits/s speed=0.202x elapsed=0:00:12.07    \nframe=  151 fps= 12 q=53.0 size=     256KiB time=00:00:02.51 bitrate= 833.3kbits/s speed= 0.2x elapsed=0:00:12.60    \nframe=  158 fps= 12 q=51.0 size=     256KiB time=00:00:02.63 bitrate= 796.4kbits/s speed=0.201x elapsed=0:00:13.11    \nframe=  164 fps= 12 q=34.0 size=     256KiB time=00:00:02.73 bitrate= 767.3kbits/s speed= 0.2x elapsed=0:00:13.63    \nframe=  171 fps= 12 q=53.0 size=     256KiB time=00:00:02.85 bitrate= 735.8kbits/s speed=0.201x elapsed=0:00:14.14    \nframe=  177 fps= 12 q=54.0 size=     256KiB time=00:00:02.95 bitrate= 710.9kbits/s speed=0.201x elapsed=0:00:14.67    \nframe=  185 fps= 12 q=54.0 size=     256KiB time=00:00:03.08 bitrate= 680.2kbits/s speed=0.203x elapsed=0:00:15.21    \nframe=  191 fps= 12 q=51.0 size=     256KiB time=00:00:03.18 bitrate= 658.8kbits/s speed=0.202x elapsed=0:00:15.74    \nframe=  198 fps= 12 q=54.0 size=     256KiB time=00:00:03.30 bitrate= 635.5kbits/s speed=0.203x elapsed=0:00:16.27    \nframe=  204 fps= 12 q=52.0 size=     256KiB time=00:00:03.40 bitrate= 616.8kbits/s speed=0.203x elapsed=0:00:16.78    \nframe=  211 fps= 12 q=53.0 size=     256KiB time=00:00:03.51 bitrate= 596.3kbits/s speed=0.203x elapsed=0:00:17.30    \nframe=  218 fps= 12 q=51.0 size=     256KiB time=00:00:03.63 bitrate= 577.2kbits/s speed=0.204x elapsed=0:00:17.84    \nframe=  224 fps= 12 q=34.0 size=     256KiB time=00:00:03.73 bitrate= 561.7kbits/s speed=0.203x elapsed=0:00:18.37    \nframe=  231 fps= 12 q=49.0 size=     256KiB time=00:00:03.85 bitrate= 544.7kbits/s speed=0.204x elapsed=0:00:18.88    \nframe=  237 fps= 12 q=51.0 size=     256KiB time=00:00:03.95 bitrate= 530.9kbits/s speed=0.204x elapsed=0:00:19.40    \nframe=  244 fps= 12 q=50.0 size=     256KiB time=00:00:04.06 bitrate= 515.7kbits/s speed=0.204x elapsed=0:00:19.93    \nframe=  251 fps= 12 q=46.0 size=     256KiB time=00:00:04.18 bitrate= 501.3kbits/s speed=0.205x elapsed=0:00:20.45    \nframe=  258 fps= 12 q=47.0 size=     768KiB time=00:00:04.30 bitrate=1463.1kbits/s speed=0.205x elapsed=0:00:20.97    \nframe=  266 fps= 12 q=47.0 size=     768KiB time=00:00:04.43 bitrate=1419.1kbits/s speed=0.206x elapsed=0:00:21.50    \nframe=  272 fps= 12 q=47.0 size=     768KiB time=00:00:04.53 bitrate=1387.8kbits/s speed=0.206x elapsed=0:00:22.02    \nframe=  276 fps= 12 q=48.0 size=     768KiB time=00:00:04.60 bitrate=1367.7kbits/s speed=0.204x elapsed=0:00:22.54    \nframe=  276 fps= 12 q=48.0 size=     768KiB time=00:00:04.60 bitrate=1367.7kbits/s speed= 0.2x elapsed=0:00:23.05    \nframe=  276 fps= 12 q=48.0 size=     768KiB time=00:00:04.60 bitrate=1367.7kbits/s speed=0.195x elapsed=0:00:23.58    \nframe=  276 fps= 11 q=48.0 size=     768KiB time=00:00:04.60 bitrate=1367.7kbits/s speed=0.191x elapsed=0:00:24.14    \n[out#0/webm @ 000001eab3ff9180] video:932KiB audio:0KiB subtitle:0KiB other streams:0KiB global headers:0KiB muxing overhead: 0.298114%\nframe=  300 fps= 12 q=50.0 Lsize=     935KiB time=00:00:05.00 bitrate=1532.0kbits/s speed=0.207x elapsed=0:00:24.20    \n",
  "seconds": 24.441348552703857,
  "probe_out": {}
}